<?xml version="1.0" encoding="UTF-8"?>
<svg xmlns="http://www.w3.org/2000/svg" width="64" height="64" viewBox="0 0 64 64">
  <!-- Background -->
  <rect width="64" height="64" fill="#2c3e50" rx="4"/>
  <!-- 3D Object representation (cube) -->
  <g id="source-object" transform="translate(8, 8)">
    <!-- Cube top face -->
    <polygon points="16,4 28,10 16,16 4,10" fill="#3498db" stroke="#2980b9" stroke-width="1"/>
    <!-- Cube right face -->
    <polygon points="28,10 28,22 16,28 16,16" fill="#2980b9" stroke="#1a5276" stroke-width="1"/>
    <!-- Cube left face -->
    <polygon points="4,10 16,16 16,28 4,22" fill="#5dade2" stroke="#2980b9" stroke-width="1"/>
  </g>
  <!-- Export arrow -->
  <g id="export-arrow">
    <line x1="32" y1="26" x2="32" y2="38" stroke="#ecf0f1" stroke-width="2"/>
    <polygon points="32,42 26,36 38,36" fill="#ecf0f1"/>
  </g>
  <!-- Multiple file format outputs -->
  <!-- STL file icon -->
  <g id="stl-file" transform="translate(6, 44)">
    <rect x="0" y="0" width="14" height="16" fill="#27ae60" stroke="#1e8449" stroke-width="1" rx="1"/>
    <rect x="0" y="0" width="14" height="4" fill="#1e8449" rx="1"/>
    <text x="7" y="12" font-family="Arial, sans-serif" font-size="5" fill="white" text-anchor="middle" font-weight="bold">STL</text>
  </g>
  <!-- STEP file icon -->
  <g id="step-file" transform="translate(25, 44)">
    <rect x="0" y="0" width="14" height="16" fill="#e67e22" stroke="#d35400" stroke-width="1" rx="1"/>
    <rect x="0" y="0" width="14" height="4" fill="#d35400" rx="1"/>
    <text x="7" y="12" font-family="Arial, sans-serif" font-size="4" fill="white" text-anchor="middle" font-weight="bold">STEP</text>
  </g>
  <!-- 3MF file icon -->
  <g id="3mf-file" transform="translate(44, 44)">
    <rect x="0" y="0" width="14" height="16" fill="#9b59b6" stroke="#8e44ad" stroke-width="1" rx="1"/>
    <rect x="0" y="0" width="14" height="4" fill="#8e44ad" rx="1"/>
    <text x="7" y="12" font-family="Arial, sans-serif" font-size="4" fill="white" text-anchor="middle" font-weight="bold">3MF</text>
  </g>
  <!-- Checkmarks on files to indicate selection -->
  <g id="checkmarks" fill="#2ecc71" stroke="#27ae60" stroke-width="0.5">
    <circle cx="17" cy="47" r="3" fill="#2ecc71"/>
    <path d="M15.5,47 L16.5,48 L18.5,46" stroke="white" stroke-width="1" fill="none"/>
    <circle cx="36" cy="47" r="3" fill="#2ecc71"/>
    <path d="M34.5,47 L35.5,48 L37.5,46" stroke="white" stroke-width="1" fill="none"/>
    <circle cx="55" cy="47" r="3" fill="#2ecc71"/>
    <path d="M53.5,47 L54.5,48 L56.5,46" stroke="white" stroke-width="1" fill="none"/>
  </g>
</svg>
